# xmcd
#
# Track frame offsets:
#	150
#	17783
#	33110
#	51576
#	71127
#	89740
#	103202
#	115984
#	130063
#	145141
#	157676
#	170960
#
# Disc length: 2534 seconds
#
# Revision: 1
# Processed by: cddbd v1.5.2PL0 Copyright (c) Steve Scherf et al.
# Submitted via: dBpowerAMP V4.0
#
DISCID=ad09e40c
DTITLE=Poul Krebs - Ku den næste dans blive min?
DYEAR=2006
DGENRE=Blues
TTITLE0=The Young Inspiration Society
TTITLE1=GSG (går den så går den)
TTITLE2=Mesterværk
TTITLE3=Dæmoner og engle
TTITLE4=Ford Anglia
TTITLE5=Når det bli'r sommer
TTITLE6=Så godt som alt
TTITLE7=Køen i Kvickly
TTITLE8=Drømmere som os
TTITLE9=1. division
TTITLE10=Reparer min himmel
TTITLE11=De blå barakker
EXTD=
EXTT0=
EXTT1=
EXTT2=
EXTT3=
EXTT4=
EXTT5=
EXTT6=
EXTT7=
EXTT8=
EXTT9=
EXTT10=
EXTT11=
PLAYORDER=
